<?xml version="1.0" encoding="utf-8"?>
<!-- Generator: Adobe Illustrator 24.1.2, SVG Export Plug-In . SVG Version: 6.00 Build 0)  -->
<svg version="1.1" id="Ebene_1" xmlns="http://www.w3.org/2000/svg" xmlns:xlink="http://www.w3.org/1999/xlink" x="0px" y="0px"
	 viewBox="0 0 457.41 117.59" style="enable-background:new 0 0 457.41 117.59;" xml:space="preserve">
<style type="text/css">
	.Grün_x0020_bogenförmig{fill:url(#SVGID_1_);stroke:#FFFFFF;stroke-width:0.25;stroke-miterlimit:1;}
	.st0{fill:#9F5F98;}
</style>
<linearGradient id="SVGID_1_" gradientUnits="userSpaceOnUse" x1="-60.4815" y1="490.7044" x2="-59.7744" y2="489.9973">
	<stop  offset="0" style="stop-color:#20AC4B"/>
	<stop  offset="0.9831" style="stop-color:#19361A"/>
</linearGradient>
<g>
	<path class="st0" d="M424.85,76.68c4.42-7.49,6.54-15.87,6.54-23.69c0-21.3-15.71-46.85-50.97-46.85
		c-35.27,0-50.98,25.55-50.98,46.85c0,21.29,15.71,46.85,50.98,46.85c9.83,0,18.13-1.99,25.01-5.31l17.23,17.24l18.64-18.64
		L424.85,76.68z"/>
	<polygon class="st0" points="59.97,25.33 46.29,8.09 13.59,8.09 13.59,29.87 22.77,29.87 41.72,53 22.41,76.57 13.59,76.57 
		13.59,87.33 13.51,87.43 13.59,87.43 13.59,98.3 46.29,98.3 59.97,81.07 73.66,98.3 106.44,98.3 106.44,76.57 97.45,76.57 
		78.14,53 97.09,29.87 106.44,29.87 106.44,8.09 73.66,8.09 	"/>
	<rect x="115.28" y="8.09" class="st0" width="32.78" height="90.21"/>
	<rect x="291.08" y="8.09" class="st0" width="32.78" height="90.21"/>
	<polygon class="st0" points="257.9,8.09 241.25,8.09 219.77,39.79 198.29,8.09 163.36,8.09 163.36,8.09 156.32,8.09 156.32,29.75 
		163.36,29.75 163.36,98.3 196.14,98.3 196.14,53.58 219.2,85.67 219.77,85.67 242.82,53.58 242.82,98.3 275.75,98.3 275.75,29.75 
		282.8,29.75 282.8,8.09 275.75,8.09 	"/>
</g>
</svg>
